<svg width="528" height="145" viewBox="0 0 528 145" fill="none" xmlns="http://www.w3.org/2000/svg">
<path d="M152 40L152 136" stroke="black" stroke-width="1.5" stroke-miterlimit="10" stroke-linecap="round" stroke-linejoin="round"/>
<path d="M58 117.201C58 113.756 54.112 111 49.072 111C44.032 111 40 113.756 40 117.201V136H58V117.201Z" stroke="black" stroke-width="1.5" stroke-miterlimit="10" stroke-linecap="round" stroke-linejoin="round"/>
<path d="M92 117.201C92 113.756 88.112 111 83.072 111C78.032 111 74 113.756 74 117.201V136H92V117.201Z" stroke="black" stroke-width="1.5" stroke-miterlimit="10" stroke-linecap="round" stroke-linejoin="round"/>
<path d="M123 117.201C123 113.756 120.408 111 117.048 111C113.688 111 111 113.756 111 117.201V136H123V117.201Z" stroke="black" stroke-width="1.5" stroke-miterlimit="10" stroke-linecap="round" stroke-linejoin="round"/>
<path d="M21 117.201C21 113.756 18.408 111 15.048 111C11.688 111 9 113.756 9 117.201V136H21V117.201Z" stroke="black" stroke-width="1.5" stroke-miterlimit="10" stroke-linecap="round" stroke-linejoin="round"/>
<path d="M13 79C13 77.9032 13.9032 77 15 77C16.0968 77 17 77.9032 17 79" stroke="black" stroke-width="1.5" stroke-miterlimit="10" stroke-linecap="round" stroke-linejoin="round"/>
<path d="M9 115L8.07696 110H1" stroke="black" stroke-width="1.5" stroke-miterlimit="10" stroke-linecap="round" stroke-linejoin="round"/>
<path d="M111 115L110.077 110H103" stroke="black" stroke-width="1.5" stroke-miterlimit="10" stroke-linecap="round" stroke-linejoin="round"/>
<path d="M123 115L123.923 110H131" stroke="black" stroke-width="1.5" stroke-miterlimit="10" stroke-linecap="round" stroke-linejoin="round"/>
<path d="M21 115L21.923 110H29" stroke="black" stroke-width="1.5" stroke-miterlimit="10" stroke-linecap="round" stroke-linejoin="round"/>
<path d="M1 136H131" stroke="black" stroke-width="1.5" stroke-miterlimit="10" stroke-linecap="round" stroke-linejoin="round"/>
<path d="M1 104H131" stroke="black" stroke-width="1.5" stroke-miterlimit="10" stroke-linecap="round" stroke-linejoin="round"/>
<path d="M29 72H103" stroke="black" stroke-width="1.5" stroke-miterlimit="10" stroke-linecap="round" stroke-linejoin="round"/>
<path d="M106 72H128" stroke="black" stroke-width="1.5" stroke-miterlimit="10" stroke-linecap="round" stroke-linejoin="round"/>
<path d="M4 72H26" stroke="black" stroke-width="1.5" stroke-miterlimit="10" stroke-linecap="round" stroke-linejoin="round"/>
<path d="M1 116H131" stroke="black" stroke-width="1.5" stroke-miterlimit="10" stroke-linecap="round" stroke-linejoin="round"/>
<path d="M58 121H74" stroke="black" stroke-width="1.5" stroke-miterlimit="10" stroke-linecap="round" stroke-linejoin="round"/>
<path d="M58 126H74" stroke="black" stroke-width="1.5" stroke-miterlimit="10" stroke-linecap="round" stroke-linejoin="round"/>
<path d="M58 131H74" stroke="black" stroke-width="1.5" stroke-miterlimit="10" stroke-linecap="round" stroke-linejoin="round"/>
<path d="M92 121H111" stroke="black" stroke-width="1.5" stroke-miterlimit="10" stroke-linecap="round" stroke-linejoin="round"/>
<path d="M92 126H111" stroke="black" stroke-width="1.5" stroke-miterlimit="10" stroke-linecap="round" stroke-linejoin="round"/>
<path d="M92 131H111" stroke="black" stroke-width="1.5" stroke-miterlimit="10" stroke-linecap="round" stroke-linejoin="round"/>
<path d="M21 121H40" stroke="black" stroke-width="1.5" stroke-miterlimit="10" stroke-linecap="round" stroke-linejoin="round"/>
<path d="M21 126H40" stroke="black" stroke-width="1.5" stroke-miterlimit="10" stroke-linecap="round" stroke-linejoin="round"/>
<path d="M21 131H40" stroke="black" stroke-width="1.5" stroke-miterlimit="10" stroke-linecap="round" stroke-linejoin="round"/>
<path d="M1 121H9" stroke="black" stroke-width="1.5" stroke-miterlimit="10" stroke-linecap="round" stroke-linejoin="round"/>
<path d="M1 126H9" stroke="black" stroke-width="1.5" stroke-miterlimit="10" stroke-linecap="round" stroke-linejoin="round"/>
<path d="M1 131H9" stroke="black" stroke-width="1.5" stroke-miterlimit="10" stroke-linecap="round" stroke-linejoin="round"/>
<path d="M123 121H131" stroke="black" stroke-width="1.5" stroke-miterlimit="10" stroke-linecap="round" stroke-linejoin="round"/>
<path d="M123 126H131" stroke="black" stroke-width="1.5" stroke-miterlimit="10" stroke-linecap="round" stroke-linejoin="round"/>
<path d="M123 131H131" stroke="black" stroke-width="1.5" stroke-miterlimit="10" stroke-linecap="round" stroke-linejoin="round"/>
<path d="M1 48H131" stroke="black" stroke-width="1.5" stroke-miterlimit="10" stroke-linecap="round" stroke-linejoin="round"/>
<path d="M26 1H106" stroke="black" stroke-width="1.5" stroke-miterlimit="10" stroke-linecap="round" stroke-linejoin="round"/>
<path d="M106 1L131 40" stroke="black" stroke-width="1.5" stroke-miterlimit="10" stroke-linecap="round" stroke-linejoin="round"/>
<path d="M1 40L26 1" stroke="black" stroke-width="1.5" stroke-miterlimit="10" stroke-linecap="round" stroke-linejoin="round"/>
<path d="M1 44H131" stroke="black" stroke-width="1.5" stroke-miterlimit="10" stroke-linecap="round" stroke-linejoin="round"/>
<path d="M37 80H61" stroke="black" stroke-width="1.5" stroke-miterlimit="10" stroke-linecap="round" stroke-linejoin="round"/>
<path d="M9 80H21" stroke="black" stroke-width="1.5" stroke-miterlimit="10" stroke-linecap="round" stroke-linejoin="round"/>
<path d="M9 116H21" stroke="black" stroke-width="1.5" stroke-miterlimit="10" stroke-linecap="round" stroke-linejoin="round"/>
<path d="M111 116H123" stroke="black" stroke-width="1.5" stroke-miterlimit="10" stroke-linecap="round" stroke-linejoin="round"/>
<path d="M40 116H58" stroke="black" stroke-width="1.5" stroke-miterlimit="10" stroke-linecap="round" stroke-linejoin="round"/>
<path d="M74 116H92" stroke="black" stroke-width="1.5" stroke-miterlimit="10" stroke-linecap="round" stroke-linejoin="round"/>
<path d="M115 79C115 77.9032 115.903 77 117 77C118.097 77 119 77.9032 119 79" stroke="black" stroke-width="1.5" stroke-miterlimit="10" stroke-linecap="round" stroke-linejoin="round"/>
<path d="M111 80H123" stroke="black" stroke-width="1.5" stroke-miterlimit="10" stroke-linecap="round" stroke-linejoin="round"/>
<path d="M49 76L61 80" stroke="black" stroke-width="1.5" stroke-miterlimit="10" stroke-linecap="round" stroke-linejoin="round"/>
<path d="M37 80L49 76" stroke="black" stroke-width="1.5" stroke-miterlimit="10" stroke-linecap="round" stroke-linejoin="round"/>
<path d="M1 40H131" stroke="black" stroke-width="1.5" stroke-miterlimit="10" stroke-linecap="round" stroke-linejoin="round"/>
<path d="M1 40L1 136" stroke="black" stroke-width="1.5" stroke-miterlimit="10" stroke-linecap="round" stroke-linejoin="round"/>
<path d="M131 40V136" stroke="black" stroke-width="1.5" stroke-miterlimit="10" stroke-linecap="round" stroke-linejoin="round"/>
<path d="M103 48V136" stroke="black" stroke-width="1.5" stroke-miterlimit="10" stroke-linecap="round" stroke-linejoin="round"/>
<path d="M29 48L29 136" stroke="black" stroke-width="1.5" stroke-miterlimit="10" stroke-linecap="round" stroke-linejoin="round"/>
<path d="M26 48L26 104" stroke="black" stroke-width="1.5" stroke-miterlimit="10" stroke-linecap="round" stroke-linejoin="round"/>
<path d="M4 48L4 104" stroke="black" stroke-width="1.5" stroke-miterlimit="10" stroke-linecap="round" stroke-linejoin="round"/>
<path d="M6 40V44" stroke="black" stroke-width="1.5" stroke-miterlimit="10" stroke-linecap="round" stroke-linejoin="round"/>
<path d="M31 40V44" stroke="black" stroke-width="1.5" stroke-miterlimit="10" stroke-linecap="round" stroke-linejoin="round"/>
<path d="M11 40V44" stroke="black" stroke-width="1.5" stroke-miterlimit="10" stroke-linecap="round" stroke-linejoin="round"/>
<path d="M16 40V44" stroke="black" stroke-width="1.5" stroke-miterlimit="10" stroke-linecap="round" stroke-linejoin="round"/>
<path d="M36 40V44" stroke="black" stroke-width="1.5" stroke-miterlimit="10" stroke-linecap="round" stroke-linejoin="round"/>
<path d="M21 40V44" stroke="black" stroke-width="1.5" stroke-miterlimit="10" stroke-linecap="round" stroke-linejoin="round"/>
<path d="M26 40V44" stroke="black" stroke-width="1.5" stroke-miterlimit="10" stroke-linecap="round" stroke-linejoin="round"/>
<path d="M41 40V44" stroke="black" stroke-width="1.5" stroke-miterlimit="10" stroke-linecap="round" stroke-linejoin="round"/>
<path d="M66 40V44" stroke="black" stroke-width="1.5" stroke-miterlimit="10" stroke-linecap="round" stroke-linejoin="round"/>
<path d="M46 40V44" stroke="black" stroke-width="1.5" stroke-miterlimit="10" stroke-linecap="round" stroke-linejoin="round"/>
<path d="M51 40V44" stroke="black" stroke-width="1.5" stroke-miterlimit="10" stroke-linecap="round" stroke-linejoin="round"/>
<path d="M71 40V44" stroke="black" stroke-width="1.5" stroke-miterlimit="10" stroke-linecap="round" stroke-linejoin="round"/>
<path d="M56 40V44" stroke="black" stroke-width="1.5" stroke-miterlimit="10" stroke-linecap="round" stroke-linejoin="round"/>
<path d="M61 40V44" stroke="black" stroke-width="1.5" stroke-miterlimit="10" stroke-linecap="round" stroke-linejoin="round"/>
<path d="M76 40V44" stroke="black" stroke-width="1.5" stroke-miterlimit="10" stroke-linecap="round" stroke-linejoin="round"/>
<path d="M81 40V44" stroke="black" stroke-width="1.5" stroke-miterlimit="10" stroke-linecap="round" stroke-linejoin="round"/>
<path d="M86 40V44" stroke="black" stroke-width="1.5" stroke-miterlimit="10" stroke-linecap="round" stroke-linejoin="round"/>
<path d="M106 40V44" stroke="black" stroke-width="1.5" stroke-miterlimit="10" stroke-linecap="round" stroke-linejoin="round"/>
<path d="M91 40V44" stroke="black" stroke-width="1.5" stroke-miterlimit="10" stroke-linecap="round" stroke-linejoin="round"/>
<path d="M96 40V44" stroke="black" stroke-width="1.5" stroke-miterlimit="10" stroke-linecap="round" stroke-linejoin="round"/>
<path d="M101 40V44" stroke="black" stroke-width="1.5" stroke-miterlimit="10" stroke-linecap="round" stroke-linejoin="round"/>
<path d="M121 40V44" stroke="black" stroke-width="1.5" stroke-miterlimit="10" stroke-linecap="round" stroke-linejoin="round"/>
<path d="M126 40V44" stroke="black" stroke-width="1.5" stroke-miterlimit="10" stroke-linecap="round" stroke-linejoin="round"/>
<path d="M111 40V44" stroke="black" stroke-width="1.5" stroke-miterlimit="10" stroke-linecap="round" stroke-linejoin="round"/>
<path d="M116 40V44" stroke="black" stroke-width="1.5" stroke-miterlimit="10" stroke-linecap="round" stroke-linejoin="round"/>
<path d="M128 48L128 104" stroke="black" stroke-width="1.5" stroke-miterlimit="10" stroke-linecap="round" stroke-linejoin="round"/>
<path d="M106 48L106 104" stroke="black" stroke-width="1.5" stroke-miterlimit="10" stroke-linecap="round" stroke-linejoin="round"/>
<path d="M40 83L40 101" stroke="black" stroke-width="1.5" stroke-miterlimit="10" stroke-linecap="round" stroke-linejoin="round"/>
<path d="M40 95H48" stroke="black" stroke-width="1.5" stroke-miterlimit="10" stroke-linecap="round" stroke-linejoin="round"/>
<path d="M40 101H48" stroke="black" stroke-width="1.5" stroke-miterlimit="10" stroke-linecap="round" stroke-linejoin="round"/>
<path d="M40 89H48" stroke="black" stroke-width="1.5" stroke-miterlimit="10" stroke-linecap="round" stroke-linejoin="round"/>
<path d="M40 83H48" stroke="black" stroke-width="1.5" stroke-miterlimit="10" stroke-linecap="round" stroke-linejoin="round"/>
<path d="M48 83L48 101" stroke="black" stroke-width="1.5" stroke-miterlimit="10" stroke-linecap="round" stroke-linejoin="round"/>
<path d="M44 83L44 101" stroke="black" stroke-width="1.5" stroke-miterlimit="10" stroke-linecap="round" stroke-linejoin="round"/>
<path d="M50 83L50 101" stroke="black" stroke-width="1.5" stroke-miterlimit="10" stroke-linecap="round" stroke-linejoin="round"/>
<path d="M50 95H58" stroke="black" stroke-width="1.5" stroke-miterlimit="10" stroke-linecap="round" stroke-linejoin="round"/>
<path d="M50 101H58" stroke="black" stroke-width="1.5" stroke-miterlimit="10" stroke-linecap="round" stroke-linejoin="round"/>
<path d="M50 89H58" stroke="black" stroke-width="1.5" stroke-miterlimit="10" stroke-linecap="round" stroke-linejoin="round"/>
<path d="M50 83H58" stroke="black" stroke-width="1.5" stroke-miterlimit="10" stroke-linecap="round" stroke-linejoin="round"/>
<path d="M58 83L58 101" stroke="black" stroke-width="1.5" stroke-miterlimit="10" stroke-linecap="round" stroke-linejoin="round"/>
<path d="M54 83L54 101" stroke="black" stroke-width="1.5" stroke-miterlimit="10" stroke-linecap="round" stroke-linejoin="round"/>
<path d="M71 80H95" stroke="black" stroke-width="1.5" stroke-miterlimit="10" stroke-linecap="round" stroke-linejoin="round"/>
<path d="M83 76L95 80" stroke="black" stroke-width="1.5" stroke-miterlimit="10" stroke-linecap="round" stroke-linejoin="round"/>
<path d="M71 80L83 76" stroke="black" stroke-width="1.5" stroke-miterlimit="10" stroke-linecap="round" stroke-linejoin="round"/>
<path d="M74 83L74 101" stroke="black" stroke-width="1.5" stroke-miterlimit="10" stroke-linecap="round" stroke-linejoin="round"/>
<path d="M74 95H82" stroke="black" stroke-width="1.5" stroke-miterlimit="10" stroke-linecap="round" stroke-linejoin="round"/>
<path d="M74 101H82" stroke="black" stroke-width="1.5" stroke-miterlimit="10" stroke-linecap="round" stroke-linejoin="round"/>
<path d="M74 89H82" stroke="black" stroke-width="1.5" stroke-miterlimit="10" stroke-linecap="round" stroke-linejoin="round"/>
<path d="M74 83H82" stroke="black" stroke-width="1.5" stroke-miterlimit="10" stroke-linecap="round" stroke-linejoin="round"/>
<path d="M82 83L82 101" stroke="black" stroke-width="1.5" stroke-miterlimit="10" stroke-linecap="round" stroke-linejoin="round"/>
<path d="M78 83L78 101" stroke="black" stroke-width="1.5" stroke-miterlimit="10" stroke-linecap="round" stroke-linejoin="round"/>
<path d="M84 83L84 101" stroke="black" stroke-width="1.5" stroke-miterlimit="10" stroke-linecap="round" stroke-linejoin="round"/>
<path d="M84 95H92" stroke="black" stroke-width="1.5" stroke-miterlimit="10" stroke-linecap="round" stroke-linejoin="round"/>
<path d="M84 101H92" stroke="black" stroke-width="1.5" stroke-miterlimit="10" stroke-linecap="round" stroke-linejoin="round"/>
<path d="M84 89H92" stroke="black" stroke-width="1.5" stroke-miterlimit="10" stroke-linecap="round" stroke-linejoin="round"/>
<path d="M84 83H92" stroke="black" stroke-width="1.5" stroke-miterlimit="10" stroke-linecap="round" stroke-linejoin="round"/>
<path d="M92 83L92 101" stroke="black" stroke-width="1.5" stroke-miterlimit="10" stroke-linecap="round" stroke-linejoin="round"/>
<path d="M88 83L88 101" stroke="black" stroke-width="1.5" stroke-miterlimit="10" stroke-linecap="round" stroke-linejoin="round"/>
<path d="M40 51L40 69" stroke="black" stroke-width="1.5" stroke-miterlimit="10" stroke-linecap="round" stroke-linejoin="round"/>
<path d="M40 63H48" stroke="black" stroke-width="1.5" stroke-miterlimit="10" stroke-linecap="round" stroke-linejoin="round"/>
<path d="M40 69H48" stroke="black" stroke-width="1.5" stroke-miterlimit="10" stroke-linecap="round" stroke-linejoin="round"/>
<path d="M40 57H48" stroke="black" stroke-width="1.5" stroke-miterlimit="10" stroke-linecap="round" stroke-linejoin="round"/>
<path d="M40 51H48" stroke="black" stroke-width="1.5" stroke-miterlimit="10" stroke-linecap="round" stroke-linejoin="round"/>
<path d="M48 51L48 69" stroke="black" stroke-width="1.5" stroke-miterlimit="10" stroke-linecap="round" stroke-linejoin="round"/>
<path d="M44 51L44 69" stroke="black" stroke-width="1.5" stroke-miterlimit="10" stroke-linecap="round" stroke-linejoin="round"/>
<path d="M50 51L50 69" stroke="black" stroke-width="1.5" stroke-miterlimit="10" stroke-linecap="round" stroke-linejoin="round"/>
<path d="M50 63H58" stroke="black" stroke-width="1.5" stroke-miterlimit="10" stroke-linecap="round" stroke-linejoin="round"/>
<path d="M50 69H58" stroke="black" stroke-width="1.5" stroke-miterlimit="10" stroke-linecap="round" stroke-linejoin="round"/>
<path d="M50 57H58" stroke="black" stroke-width="1.5" stroke-miterlimit="10" stroke-linecap="round" stroke-linejoin="round"/>
<path d="M50 51H58" stroke="black" stroke-width="1.5" stroke-miterlimit="10" stroke-linecap="round" stroke-linejoin="round"/>
<path d="M58 51L58 69" stroke="black" stroke-width="1.5" stroke-miterlimit="10" stroke-linecap="round" stroke-linejoin="round"/>
<path d="M54 51L54 69" stroke="black" stroke-width="1.5" stroke-miterlimit="10" stroke-linecap="round" stroke-linejoin="round"/>
<path d="M74 51L74 69" stroke="black" stroke-width="1.5" stroke-miterlimit="10" stroke-linecap="round" stroke-linejoin="round"/>
<path d="M74 63H82" stroke="black" stroke-width="1.5" stroke-miterlimit="10" stroke-linecap="round" stroke-linejoin="round"/>
<path d="M74 69H82" stroke="black" stroke-width="1.5" stroke-miterlimit="10" stroke-linecap="round" stroke-linejoin="round"/>
<path d="M74 57H82" stroke="black" stroke-width="1.5" stroke-miterlimit="10" stroke-linecap="round" stroke-linejoin="round"/>
<path d="M74 51H82" stroke="black" stroke-width="1.5" stroke-miterlimit="10" stroke-linecap="round" stroke-linejoin="round"/>
<path d="M82 51L82 69" stroke="black" stroke-width="1.5" stroke-miterlimit="10" stroke-linecap="round" stroke-linejoin="round"/>
<path d="M78 51L78 69" stroke="black" stroke-width="1.5" stroke-miterlimit="10" stroke-linecap="round" stroke-linejoin="round"/>
<path d="M84 51L84 69" stroke="black" stroke-width="1.5" stroke-miterlimit="10" stroke-linecap="round" stroke-linejoin="round"/>
<path d="M84 63H92" stroke="black" stroke-width="1.5" stroke-miterlimit="10" stroke-linecap="round" stroke-linejoin="round"/>
<path d="M84 69H92" stroke="black" stroke-width="1.5" stroke-miterlimit="10" stroke-linecap="round" stroke-linejoin="round"/>
<path d="M84 57H92" stroke="black" stroke-width="1.5" stroke-miterlimit="10" stroke-linecap="round" stroke-linejoin="round"/>
<path d="M84 51H92" stroke="black" stroke-width="1.5" stroke-miterlimit="10" stroke-linecap="round" stroke-linejoin="round"/>
<path d="M92 51L92 69" stroke="black" stroke-width="1.5" stroke-miterlimit="10" stroke-linecap="round" stroke-linejoin="round"/>
<path d="M88 51L88 69" stroke="black" stroke-width="1.5" stroke-miterlimit="10" stroke-linecap="round" stroke-linejoin="round"/>
<path d="M113 83L113 101" stroke="black" stroke-width="1.5" stroke-miterlimit="10" stroke-linecap="round" stroke-linejoin="round"/>
<path d="M113 95H121" stroke="black" stroke-width="1.5" stroke-miterlimit="10" stroke-linecap="round" stroke-linejoin="round"/>
<path d="M113 101H121" stroke="black" stroke-width="1.5" stroke-miterlimit="10" stroke-linecap="round" stroke-linejoin="round"/>
<path d="M113 89H121" stroke="black" stroke-width="1.5" stroke-miterlimit="10" stroke-linecap="round" stroke-linejoin="round"/>
<path d="M113 83H121" stroke="black" stroke-width="1.5" stroke-miterlimit="10" stroke-linecap="round" stroke-linejoin="round"/>
<path d="M121 83L121 101" stroke="black" stroke-width="1.5" stroke-miterlimit="10" stroke-linecap="round" stroke-linejoin="round"/>
<path d="M117 83L117 101" stroke="black" stroke-width="1.5" stroke-miterlimit="10" stroke-linecap="round" stroke-linejoin="round"/>
<path d="M113 51L113 69" stroke="black" stroke-width="1.5" stroke-miterlimit="10" stroke-linecap="round" stroke-linejoin="round"/>
<path d="M113 63H121" stroke="black" stroke-width="1.5" stroke-miterlimit="10" stroke-linecap="round" stroke-linejoin="round"/>
<path d="M113 69H121" stroke="black" stroke-width="1.5" stroke-miterlimit="10" stroke-linecap="round" stroke-linejoin="round"/>
<path d="M113 57H121" stroke="black" stroke-width="1.5" stroke-miterlimit="10" stroke-linecap="round" stroke-linejoin="round"/>
<path d="M113 51H121" stroke="black" stroke-width="1.5" stroke-miterlimit="10" stroke-linecap="round" stroke-linejoin="round"/>
<path d="M121 51L121 69" stroke="black" stroke-width="1.5" stroke-miterlimit="10" stroke-linecap="round" stroke-linejoin="round"/>
<path d="M117 51L117 69" stroke="black" stroke-width="1.5" stroke-miterlimit="10" stroke-linecap="round" stroke-linejoin="round"/>
<path d="M11 51L11 69" stroke="black" stroke-width="1.5" stroke-miterlimit="10" stroke-linecap="round" stroke-linejoin="round"/>
<path d="M11 63H19" stroke="black" stroke-width="1.5" stroke-miterlimit="10" stroke-linecap="round" stroke-linejoin="round"/>
<path d="M11 69H19" stroke="black" stroke-width="1.5" stroke-miterlimit="10" stroke-linecap="round" stroke-linejoin="round"/>
<path d="M11 57H19" stroke="black" stroke-width="1.5" stroke-miterlimit="10" stroke-linecap="round" stroke-linejoin="round"/>
<path d="M11 51H19" stroke="black" stroke-width="1.5" stroke-miterlimit="10" stroke-linecap="round" stroke-linejoin="round"/>
<path d="M19 51L19 69" stroke="black" stroke-width="1.5" stroke-miterlimit="10" stroke-linecap="round" stroke-linejoin="round"/>
<path d="M15 51L15 69" stroke="black" stroke-width="1.5" stroke-miterlimit="10" stroke-linecap="round" stroke-linejoin="round"/>
<path d="M11 83L11 101" stroke="black" stroke-width="1.5" stroke-miterlimit="10" stroke-linecap="round" stroke-linejoin="round"/>
<path d="M11 95H19" stroke="black" stroke-width="1.5" stroke-miterlimit="10" stroke-linecap="round" stroke-linejoin="round"/>
<path d="M11 101H19" stroke="black" stroke-width="1.5" stroke-miterlimit="10" stroke-linecap="round" stroke-linejoin="round"/>
<path d="M11 89H19" stroke="black" stroke-width="1.5" stroke-miterlimit="10" stroke-linecap="round" stroke-linejoin="round"/>
<path d="M11 83H19" stroke="black" stroke-width="1.5" stroke-miterlimit="10" stroke-linecap="round" stroke-linejoin="round"/>
<path d="M19 83L19 101" stroke="black" stroke-width="1.5" stroke-miterlimit="10" stroke-linecap="round" stroke-linejoin="round"/>
<path d="M15 83L15 101" stroke="black" stroke-width="1.5" stroke-miterlimit="10" stroke-linecap="round" stroke-linejoin="round"/>
<mask id="path-168-inside-1_7_181" fill="white">
<rect x="18" y="22" width="5" height="9" rx="1"/>
</mask>
<rect x="18" y="22" width="5" height="9" rx="1" stroke="black" stroke-width="3" mask="url(#path-168-inside-1_7_181)"/>
<mask id="path-169-inside-2_7_181" fill="white">
<rect x="25" y="22" width="5" height="9" rx="1"/>
</mask>
<rect x="25" y="22" width="5" height="9" rx="1" stroke="black" stroke-width="3" mask="url(#path-169-inside-2_7_181)"/>
<mask id="path-170-inside-3_7_181" fill="white">
<rect x="39" y="22" width="5" height="9" rx="1"/>
</mask>
<rect x="39" y="22" width="5" height="9" rx="1" stroke="black" stroke-width="3" mask="url(#path-170-inside-3_7_181)"/>
<mask id="path-171-inside-4_7_181" fill="white">
<rect x="46" y="22" width="5" height="9" rx="1"/>
</mask>
<rect x="46" y="22" width="5" height="9" rx="1" stroke="black" stroke-width="3" mask="url(#path-171-inside-4_7_181)"/>
<mask id="path-172-inside-5_7_181" fill="white">
<rect x="81" y="22" width="5" height="9" rx="1"/>
</mask>
<rect x="81" y="22" width="5" height="9" rx="1" stroke="black" stroke-width="3" mask="url(#path-172-inside-5_7_181)"/>
<mask id="path-173-inside-6_7_181" fill="white">
<rect x="88" y="22" width="5" height="9" rx="1"/>
</mask>
<rect x="88" y="22" width="5" height="9" rx="1" stroke="black" stroke-width="3" mask="url(#path-173-inside-6_7_181)"/>
<mask id="path-174-inside-7_7_181" fill="white">
<rect x="60" y="22" width="5" height="9" rx="1"/>
</mask>
<rect x="60" y="22" width="5" height="9" rx="1" stroke="black" stroke-width="3" mask="url(#path-174-inside-7_7_181)"/>
<mask id="path-175-inside-8_7_181" fill="white">
<rect x="67" y="22" width="5" height="9" rx="1"/>
</mask>
<rect x="67" y="22" width="5" height="9" rx="1" stroke="black" stroke-width="3" mask="url(#path-175-inside-8_7_181)"/>
<mask id="path-176-inside-9_7_181" fill="white">
<rect x="102" y="22" width="5" height="9" rx="1"/>
</mask>
<rect x="102" y="22" width="5" height="9" rx="1" stroke="black" stroke-width="3" mask="url(#path-176-inside-9_7_181)"/>
<mask id="path-177-inside-10_7_181" fill="white">
<rect x="109" y="22" width="5" height="9" rx="1"/>
</mask>
<rect x="109" y="22" width="5" height="9" rx="1" stroke="black" stroke-width="3" mask="url(#path-177-inside-10_7_181)"/>
<path d="M171.734 77V75.3125L175.555 75.1484V44.7266L171.734 44.5625V42.875H175.555H185.633C188.008 42.875 190.023 43.2891 191.68 44.1172C193.336 44.9297 194.594 46.0703 195.453 47.5391C196.328 49.0078 196.766 50.7344 196.766 52.7188C196.766 54.7188 196.336 56.4609 195.477 57.9453C194.617 59.4141 193.359 60.5547 191.703 61.3672C190.047 62.1797 188.023 62.5859 185.633 62.5859H177.664V75.1484L181.484 75.3125V77H171.734ZM177.664 60.7344H185.633C188.633 60.7344 190.883 59.9766 192.383 58.4609C193.898 56.9453 194.656 55.0469 194.656 52.7656C194.656 50.4531 193.906 48.5391 192.406 47.0234C190.906 45.4922 188.648 44.7266 185.633 44.7266H177.664V60.7344ZM209.211 77.4922C206.883 77.4922 205.047 76.8516 203.703 75.5703C202.359 74.2891 201.688 72.5859 201.688 70.4609C201.688 68.1484 202.68 66.2734 204.664 64.8359C206.664 63.3828 209.375 62.6562 212.797 62.6562H218.305V59.6094C218.305 57.6562 217.727 56.0703 216.57 54.8516C215.43 53.6328 213.672 53.0234 211.297 53.0234C210 53.0234 208.828 53.25 207.781 53.7031C206.734 54.1406 205.828 54.6953 205.062 55.3672L204.945 59.3516H203.094V54.2891C204.172 53.3203 205.383 52.5625 206.727 52.0156C208.07 51.4531 209.609 51.1719 211.344 51.1719C214.297 51.1719 216.547 51.9297 218.094 53.4453C219.641 54.9453 220.414 57.0156 220.414 59.6562V71.8906C220.414 72.4688 220.438 73.0391 220.484 73.6016C220.531 74.1484 220.602 74.6953 220.695 75.2422L223.953 75.3125V77H218.82C218.633 76 218.5 75.2109 218.422 74.6328C218.359 74.0547 218.32 73.3906 218.305 72.6406C217.367 74.0625 216.109 75.2266 214.531 76.1328C212.953 77.0391 211.18 77.4922 209.211 77.4922ZM209.375 75.5938C211.203 75.5938 212.945 75.1016 214.602 74.1172C216.273 73.1172 217.508 71.7734 218.305 70.0859V64.4141H212.82C210.055 64.4141 207.859 65 206.234 66.1719C204.609 67.3281 203.797 68.7891 203.797 70.5547C203.797 72.0078 204.305 73.2109 205.32 74.1641C206.352 75.1172 207.703 75.5938 209.375 75.5938ZM227.633 77V75.3125L231.453 75.1484V53.4922L227.633 53.3281V51.6406H233.305L233.516 56.4922C234.297 54.8047 235.398 53.5 236.82 52.5781C238.242 51.6406 239.961 51.1719 241.977 51.1719C244.742 51.1719 246.828 52.0234 248.234 53.7266C249.641 55.4297 250.344 58.1172 250.344 61.7891V75.1484L254.164 75.3125V77H244.414V75.3125L248.234 75.1484V61.7891C248.234 58.6016 247.648 56.3516 246.477 55.0391C245.32 53.7266 243.711 53.0703 241.648 53.0703C239.273 53.0703 237.438 53.7656 236.141 55.1562C234.844 56.5312 233.984 58.3125 233.562 60.5V75.1484L237.383 75.3125V77H227.633ZM267.898 77.4922C266.102 77.4922 264.43 77.2266 262.883 76.6953C261.352 76.1641 259.984 75.4141 258.781 74.4453L258.758 69.5469H260.586L260.797 73.3203C261.719 74.1484 262.789 74.75 264.008 75.125C265.227 75.4844 266.523 75.6641 267.898 75.6641C270.133 75.6641 271.867 75.1641 273.102 74.1641C274.336 73.1641 274.953 71.9922 274.953 70.6484C274.953 69.3984 274.414 68.2734 273.336 67.2734C272.273 66.2734 270.406 65.4766 267.734 64.8828C264.719 64.2422 262.555 63.3984 261.242 62.3516C259.93 61.2891 259.273 59.7812 259.273 57.8281C259.273 56.5781 259.617 55.4531 260.305 54.4531C260.992 53.4375 261.977 52.6406 263.258 52.0625C264.539 51.4688 266.047 51.1719 267.781 51.1719C269.625 51.1719 271.234 51.4609 272.609 52.0391C273.984 52.6172 275.156 53.3906 276.125 54.3594L276.195 59.3516H274.367L274.18 55.4375C273.43 54.6562 272.547 54.0625 271.531 53.6562C270.516 53.2344 269.266 53.0234 267.781 53.0234C265.703 53.0234 264.117 53.5078 263.023 54.4766C261.93 55.4297 261.383 56.5234 261.383 57.7578C261.383 58.5859 261.555 59.3125 261.898 59.9375C262.258 60.5625 262.922 61.125 263.891 61.625C264.875 62.1094 266.312 62.5625 268.203 62.9844C271.219 63.6719 273.445 64.6172 274.883 65.8203C276.336 67.0078 277.062 68.6016 277.062 70.6016C277.062 72.6172 276.25 74.2734 274.625 75.5703C273.016 76.8516 270.773 77.4922 267.898 77.4922ZM281.539 77V75.3125L285.359 75.1484V42.2891L281.539 42.125V40.4375H287.469V75.1484L291.289 75.3125V77H281.539ZM297.875 77V75.3125L300.734 75.2422L300.758 75.125L291.922 63.0078L293.188 61.4609L303.406 75.1719L306.383 75.3125V77H297.875ZM287.211 69.0781L286.461 67.2266L299.516 53.5625V53.4219L296.75 53.3281V51.6406H305.117V53.3281L302.164 53.4922L287.211 69.0781ZM317.586 77.4922C315.258 77.4922 313.422 76.8516 312.078 75.5703C310.734 74.2891 310.062 72.5859 310.062 70.4609C310.062 68.1484 311.055 66.2734 313.039 64.8359C315.039 63.3828 317.75 62.6562 321.172 62.6562H326.68V59.6094C326.68 57.6562 326.102 56.0703 324.945 54.8516C323.805 53.6328 322.047 53.0234 319.672 53.0234C318.375 53.0234 317.203 53.25 316.156 53.7031C315.109 54.1406 314.203 54.6953 313.438 55.3672L313.32 59.3516H311.469V54.2891C312.547 53.3203 313.758 52.5625 315.102 52.0156C316.445 51.4531 317.984 51.1719 319.719 51.1719C322.672 51.1719 324.922 51.9297 326.469 53.4453C328.016 54.9453 328.789 57.0156 328.789 59.6562V71.8906C328.789 72.4688 328.812 73.0391 328.859 73.6016C328.906 74.1484 328.977 74.6953 329.07 75.2422L332.328 75.3125V77H327.195C327.008 76 326.875 75.2109 326.797 74.6328C326.734 74.0547 326.695 73.3906 326.68 72.6406C325.742 74.0625 324.484 75.2266 322.906 76.1328C321.328 77.0391 319.555 77.4922 317.586 77.4922ZM317.75 75.5938C319.578 75.5938 321.32 75.1016 322.977 74.1172C324.648 73.1172 325.883 71.7734 326.68 70.0859V64.4141H321.195C318.43 64.4141 316.234 65 314.609 66.1719C312.984 67.3281 312.172 68.7891 312.172 70.5547C312.172 72.0078 312.68 73.2109 313.695 74.1641C314.727 75.1172 316.078 75.5938 317.75 75.5938ZM318.172 46.0859L322.414 40.4375H324.898L324.945 40.5547L319.859 46.1797H318.266L318.172 46.0859ZM348.242 77V75.3125L354.711 75.1484V45.0078L347.445 46.3438V44.75L356.82 42.7344V75.1484L363.289 75.3125V77H348.242ZM373.906 77L374.094 74.4688C374.547 70.5 375.32 66.7812 376.414 63.3125C377.508 59.8281 378.914 56.5547 380.633 53.4922C382.352 50.4141 384.359 47.4922 386.656 44.7266H368.844L368.773 49.9062H366.828V42.875H388.953V44.7266C387.172 46.8047 385.57 48.9453 384.148 51.1484C382.727 53.3359 381.484 55.6328 380.422 58.0391C379.359 60.4297 378.477 62.9844 377.773 65.7031C377.086 68.4219 376.562 71.3438 376.203 74.4688L376.016 77H373.906ZM183.102 135.492C180.945 135.492 179.039 135.125 177.383 134.391C175.742 133.656 174.461 132.586 173.539 131.18C172.617 129.773 172.156 128.055 172.156 126.023C172.156 123.992 172.797 122.219 174.078 120.703C175.359 119.188 177.062 118.125 179.188 117.516C177.328 116.922 175.852 115.93 174.758 114.539C173.664 113.133 173.117 111.492 173.117 109.617C173.117 107.664 173.539 106 174.383 104.625C175.227 103.25 176.398 102.203 177.898 101.484C179.398 100.75 181.117 100.383 183.055 100.383C184.992 100.383 186.711 100.75 188.211 101.484C189.711 102.219 190.891 103.273 191.75 104.648C192.609 106.023 193.039 107.68 193.039 109.617C193.039 111.492 192.477 113.133 191.352 114.539C190.242 115.93 188.766 116.922 186.922 117.516C189.031 118.141 190.742 119.211 192.055 120.727C193.367 122.227 194.023 123.992 194.023 126.023C194.023 128.055 193.555 129.773 192.617 131.18C191.695 132.586 190.414 133.656 188.773 134.391C187.133 135.125 185.242 135.492 183.102 135.492ZM183.102 133.641C184.805 133.641 186.312 133.336 187.625 132.727C188.953 132.117 189.992 131.25 190.742 130.125C191.508 129 191.891 127.656 191.891 126.094C191.891 124.578 191.5 123.25 190.719 122.109C189.953 120.953 188.898 120.055 187.555 119.414C186.227 118.773 184.727 118.453 183.055 118.453C181.367 118.453 179.859 118.773 178.531 119.414C177.203 120.055 176.156 120.945 175.391 122.086C174.641 123.227 174.266 124.562 174.266 126.094C174.266 128.469 175.086 130.32 176.727 131.648C178.367 132.977 180.492 133.641 183.102 133.641ZM183.102 116.578C184.602 116.578 185.938 116.289 187.109 115.711C188.297 115.133 189.227 114.312 189.898 113.25C190.586 112.188 190.93 110.953 190.93 109.547C190.93 108.141 190.578 106.891 189.875 105.797C189.188 104.688 188.25 103.82 187.062 103.195C185.875 102.555 184.539 102.234 183.055 102.234C180.758 102.234 178.875 102.898 177.406 104.227C175.953 105.555 175.227 107.328 175.227 109.547C175.227 111.688 175.961 113.398 177.43 114.68C178.898 115.945 180.789 116.578 183.102 116.578ZM198.992 135V133.312L205.461 133.148V103.008L198.195 104.344V102.75L207.57 100.734V133.148L214.039 133.312V135H198.992ZM218.398 135V133.312L224.867 133.148V103.008L217.602 104.344V102.75L226.977 100.734V133.148L233.445 133.312V135H218.398ZM260.211 135.492C256.898 135.492 254.312 134.289 252.453 131.883C250.594 129.477 249.664 126.07 249.664 121.664V114.211C249.664 109.805 250.586 106.398 252.43 103.992C254.273 101.586 256.852 100.383 260.164 100.383C263.477 100.383 266.055 101.586 267.898 103.992C269.758 106.398 270.688 109.805 270.688 114.211V121.664C270.688 126.086 269.766 129.5 267.922 131.906C266.094 134.297 263.523 135.492 260.211 135.492ZM260.211 133.641C262.93 133.641 265 132.602 266.422 130.523C267.859 128.445 268.578 125.555 268.578 121.852V113.977C268.578 110.258 267.859 107.375 266.422 105.328C264.984 103.266 262.898 102.234 260.164 102.234C257.43 102.234 255.344 103.266 253.906 105.328C252.484 107.375 251.773 110.258 251.773 113.977V121.852C251.773 125.539 252.492 128.43 253.93 130.523C255.383 132.602 257.477 133.641 260.211 133.641ZM276.523 135V133.312L282.992 133.148V103.008L275.727 104.344V102.75L285.102 100.734V133.148L291.57 133.312V135H276.523ZM306.688 135V133.312L310.508 133.148V102.727L306.688 102.562V100.875H310.508H319.953C323.5 100.875 326.25 101.617 328.203 103.102C330.172 104.57 331.156 106.781 331.156 109.734C331.156 111.641 330.641 113.266 329.609 114.609C328.594 115.953 327.172 116.82 325.344 117.211C326.766 117.43 328.023 117.938 329.117 118.734C330.211 119.531 331.078 120.523 331.719 121.711C332.359 122.883 332.68 124.156 332.68 125.531C332.68 128.562 331.695 130.898 329.727 132.539C327.773 134.18 325.18 135 321.945 135H306.688ZM312.617 133.148H321.945C324.617 133.148 326.719 132.484 328.25 131.156C329.781 129.828 330.547 127.969 330.547 125.578C330.547 123.516 329.828 121.797 328.391 120.422C326.969 119.047 324.938 118.359 322.297 118.359H312.617V133.148ZM312.617 116.508H320.609C323.359 116.508 325.453 115.938 326.891 114.797C328.328 113.641 329.047 111.922 329.047 109.641C329.047 107.359 328.273 105.641 326.727 104.484C325.195 103.312 322.938 102.727 319.953 102.727H312.617V116.508ZM336.617 135V133.312L340.438 133.148V111.492L336.617 111.328V109.641H342.242L342.523 113.742V114.516C343.227 112.828 344.234 111.516 345.547 110.578C346.859 109.641 348.445 109.172 350.305 109.172C350.695 109.172 351.125 109.211 351.594 109.289C352.062 109.352 352.406 109.414 352.625 109.477L352.367 111.398L349.977 111.234C347.977 111.203 346.344 111.82 345.078 113.086C343.812 114.336 342.969 115.984 342.547 118.031V133.148L346.367 133.312V135H336.617ZM363.945 135.492C361.617 135.492 359.781 134.852 358.438 133.57C357.094 132.289 356.422 130.586 356.422 128.461C356.422 126.148 357.414 124.273 359.398 122.836C361.398 121.383 364.109 120.656 367.531 120.656H373.039V117.609C373.039 115.656 372.461 114.07 371.305 112.852C370.164 111.633 368.406 111.023 366.031 111.023C364.734 111.023 363.562 111.25 362.516 111.703C361.469 112.141 360.562 112.695 359.797 113.367L359.68 117.352H357.828V112.289C358.906 111.32 360.117 110.562 361.461 110.016C362.805 109.453 364.344 109.172 366.078 109.172C369.031 109.172 371.281 109.93 372.828 111.445C374.375 112.945 375.148 115.016 375.148 117.656V129.891C375.148 130.469 375.172 131.039 375.219 131.602C375.266 132.148 375.336 132.695 375.43 133.242L378.688 133.312V135H373.555C373.367 134 373.234 133.211 373.156 132.633C373.094 132.055 373.055 131.391 373.039 130.641C372.102 132.062 370.844 133.227 369.266 134.133C367.688 135.039 365.914 135.492 363.945 135.492ZM364.109 133.594C365.938 133.594 367.68 133.102 369.336 132.117C371.008 131.117 372.242 129.773 373.039 128.086V122.414H367.555C364.789 122.414 362.594 123 360.969 124.172C359.344 125.328 358.531 126.789 358.531 128.555C358.531 130.008 359.039 131.211 360.055 132.164C361.086 133.117 362.438 133.594 364.109 133.594ZM391.602 135.469C389.852 135.469 388.508 134.914 387.57 133.805C386.633 132.695 386.164 130.914 386.164 128.461V111.469H381.664V109.641H386.164V102.984H388.297V109.641H394.344V111.469H388.297V128.461C388.297 130.32 388.617 131.656 389.258 132.469C389.914 133.266 390.781 133.664 391.859 133.664C392.359 133.664 392.836 133.641 393.289 133.594C393.758 133.547 394.297 133.484 394.906 133.406L395.258 135.023C394.727 135.164 394.156 135.273 393.547 135.352C392.938 135.43 392.289 135.469 391.602 135.469ZM399.242 135V133.312L403.062 133.148V111.492L399.242 111.328V109.641H405.172V133.148L408.992 133.312V135H399.242ZM402.688 102.141V98.4375H405.172V102.141H402.688ZM423.383 135.492C421.586 135.492 419.914 135.227 418.367 134.695C416.836 134.164 415.469 133.414 414.266 132.445L414.242 127.547H416.07L416.281 131.32C417.203 132.148 418.273 132.75 419.492 133.125C420.711 133.484 422.008 133.664 423.383 133.664C425.617 133.664 427.352 133.164 428.586 132.164C429.82 131.164 430.438 129.992 430.438 128.648C430.438 127.398 429.898 126.273 428.82 125.273C427.758 124.273 425.891 123.477 423.219 122.883C420.203 122.242 418.039 121.398 416.727 120.352C415.414 119.289 414.758 117.781 414.758 115.828C414.758 114.578 415.102 113.453 415.789 112.453C416.477 111.438 417.461 110.641 418.742 110.062C420.023 109.469 421.531 109.172 423.266 109.172C425.109 109.172 426.719 109.461 428.094 110.039C429.469 110.617 430.641 111.391 431.609 112.359L431.68 117.352H429.852L429.664 113.438C428.914 112.656 428.031 112.062 427.016 111.656C426 111.234 424.75 111.023 423.266 111.023C421.188 111.023 419.602 111.508 418.508 112.477C417.414 113.43 416.867 114.523 416.867 115.758C416.867 116.586 417.039 117.312 417.383 117.938C417.742 118.562 418.406 119.125 419.375 119.625C420.359 120.109 421.797 120.562 423.688 120.984C426.703 121.672 428.93 122.617 430.367 123.82C431.82 125.008 432.547 126.602 432.547 128.602C432.547 130.617 431.734 132.273 430.109 133.57C428.5 134.852 426.258 135.492 423.383 135.492ZM437.352 135V133.312L441.172 133.148V100.289L437.352 100.125V98.4375H443.281V133.148L447.102 133.312V135H437.352ZM459.43 135.492C457.102 135.492 455.266 134.852 453.922 133.57C452.578 132.289 451.906 130.586 451.906 128.461C451.906 126.148 452.898 124.273 454.883 122.836C456.883 121.383 459.594 120.656 463.016 120.656H468.523V117.609C468.523 115.656 467.945 114.07 466.789 112.852C465.648 111.633 463.891 111.023 461.516 111.023C460.219 111.023 459.047 111.25 458 111.703C456.953 112.141 456.047 112.695 455.281 113.367L455.164 117.352H453.312V112.289C454.391 111.32 455.602 110.562 456.945 110.016C458.289 109.453 459.828 109.172 461.562 109.172C464.516 109.172 466.766 109.93 468.312 111.445C469.859 112.945 470.633 115.016 470.633 117.656V129.891C470.633 130.469 470.656 131.039 470.703 131.602C470.75 132.148 470.82 132.695 470.914 133.242L474.172 133.312V135H469.039C468.852 134 468.719 133.211 468.641 132.633C468.578 132.055 468.539 131.391 468.523 130.641C467.586 132.062 466.328 133.227 464.75 134.133C463.172 135.039 461.398 135.492 459.43 135.492ZM459.594 133.594C461.422 133.594 463.164 133.102 464.82 132.117C466.492 131.117 467.727 129.773 468.523 128.086V122.414H463.039C460.273 122.414 458.078 123 456.453 124.172C454.828 125.328 454.016 126.789 454.016 128.555C454.016 130.008 454.523 131.211 455.539 132.164C456.57 133.117 457.922 133.594 459.594 133.594ZM486.992 135L477.711 111.422L474.992 111.328V109.641H483.242V111.328L479.914 111.445L486.828 129.094L487.883 132.164H488.023L489.125 129.094L495.922 111.445L492.57 111.328V109.641H500.82V111.328L498.078 111.422L488.914 135H486.992ZM511.039 135.492C508.711 135.492 506.875 134.852 505.531 133.57C504.188 132.289 503.516 130.586 503.516 128.461C503.516 126.148 504.508 124.273 506.492 122.836C508.492 121.383 511.203 120.656 514.625 120.656H520.133V117.609C520.133 115.656 519.555 114.07 518.398 112.852C517.258 111.633 515.5 111.023 513.125 111.023C511.828 111.023 510.656 111.25 509.609 111.703C508.562 112.141 507.656 112.695 506.891 113.367L506.773 117.352H504.922V112.289C506 111.32 507.211 110.562 508.555 110.016C509.898 109.453 511.438 109.172 513.172 109.172C516.125 109.172 518.375 109.93 519.922 111.445C521.469 112.945 522.242 115.016 522.242 117.656V129.891C522.242 130.469 522.266 131.039 522.312 131.602C522.359 132.148 522.43 132.695 522.523 133.242L525.781 133.312V135H520.648C520.461 134 520.328 133.211 520.25 132.633C520.188 132.055 520.148 131.391 520.133 130.641C519.195 132.062 517.938 133.227 516.359 134.133C514.781 135.039 513.008 135.492 511.039 135.492ZM511.203 133.594C513.031 133.594 514.773 133.102 516.43 132.117C518.102 131.117 519.336 129.773 520.133 128.086V122.414H514.648C511.883 122.414 509.688 123 508.062 124.172C506.438 125.328 505.625 126.789 505.625 128.555C505.625 130.008 506.133 131.211 507.148 132.164C508.18 133.117 509.531 133.594 511.203 133.594Z" fill="black"/>
</svg>
